# xmcd CD database file
#
# Track frame offsets:
#	150
#	27424
#	43334
#	73882
#	96792
#	118146
#	133861
#	155673
#	169938
#	187006
#
# Disc length: 2788 seconds
#
# Revision: 0
# Processed by: cddbd v1.5.1PL2 Copyright (c) Steve Scherf et al.
# Submitted via: CDex 1.51
#
DISCID=9a0ae20a
DTITLE=Ruben Romero and Robert Tree Cody - Native Brotherhood
DYEAR=2001
DGENRE=New Age
TTITLE0=Ruben Romero and Robert Tree Cody - Three Rivers
TTITLE1=Ruben Romero and Robert Tree Cody - Rain Chant
TTITLE2=Ruben Romero and Robert Tree Cody - Cool Native Jazz
TTITLE3=Ruben Romero and Robert Tree Cody - Gentle Wind
TTITLE4=Ruben Romero and Robert Tree Cody - Modern Traditions
TTITLE5=Ruben Romero and Robert Tree Cody - Dance of the Higher Spirits
TTITLE6=Ruben Romero and Robert Tree Cody - Celtic Calling
TTITLE7=Ruben Romero and Robert Tree Cody - Bossa Native
TTITLE8=Ruben Romero and Robert Tree Cody - Adios Amor
TTITLE9=Ruben Romero and Robert Tree Cody - Postcard from Seville
EXTD=YEAR: 2001
EXTT0=
EXTT1=
EXTT2=
EXTT3=
EXTT4=
EXTT5=
EXTT6=
EXTT7=
EXTT8=
EXTT9=
PLAYORDER=
